<?xml version="1.0" standalone="no"?>
<!DOCTYPE svg PUBLIC "-//W3C//DTD SVG 20010904//EN"
 "http://www.w3.org/TR/2001/REC-SVG-20010904/DTD/svg10.dtd">
<svg version="1.0" xmlns="http://www.w3.org/2000/svg"
 width="500.000000pt" height="500.000000pt" viewBox="0 0 500.000000 500.000000"
 preserveAspectRatio="xMidYMid meet">

<g transform="translate(0.000000,500.000000) scale(0.100000,-0.100000)"
fill="#000000" stroke="none">
<path d="M2205 4990 l30 -8 -28 -1 c-63 -2 -370 -75 -497 -117 -242 -80 -539
-243 -755 -414 -389 -308 -700 -773 -835 -1249 -72 -255 -82 -329 -87 -647 -5
-280 -4 -296 21 -445 75 -439 245 -819 522 -1169 253 -319 662 -616 1044 -758
167 -63 369 -117 520 -139 145 -22 586 -24 730 -4 106 15 304 63 455 111 141
45 418 182 561 277 157 105 414 318 414 345 0 4 -17 12 -38 17 -152 42 -410
232 -499 369 -18 28 -39 52 -46 52 -7 0 -33 -21 -57 -46 -25 -25 -81 -69 -125
-99 -183 -121 -329 -173 -665 -236 -147 -28 -192 -31 -415 -36 -276 -6 -359 3
-580 67 -456 131 -766 425 -913 865 -68 204 -77 272 -77 575 1 265 2 279 29
395 39 168 85 301 154 447 l59 125 -53 209 c-65 254 -66 274 -19 321 32 32 37
34 82 27 26 -3 119 -24 206 -45 87 -22 165 -39 173 -39 8 0 60 32 115 71 166
118 397 213 607 250 245 42 500 17 769 -75 l72 -24 123 72 c68 40 152 92 187
114 79 51 125 56 165 16 14 -15 30 -43 36 -63 6 -20 13 -145 17 -277 l6 -242
59 -68 c179 -210 313 -462 383 -722 62 -231 69 -285 69 -527 0 -206 -1 -227
-26 -327 -15 -59 -34 -124 -43 -145 -9 -20 -18 -63 -22 -94 -5 -46 -2 -66 16
-101 24 -50 107 -149 159 -191 l37 -29 155 7 c126 5 166 3 215 -10 109 -30
104 -32 157 74 67 134 160 425 197 616 l32 160 -4 310 c-3 303 -4 314 -34 455
-98 460 -288 839 -590 1177 -303 339 -681 582 -1126 723 -92 29 -361 88 -417
91 -23 1 -23 2 5 9 17 4 -125 8 -315 8 -190 0 -331 -4 -315 -8z"/>
<path d="M2345 3800 c-276 -29 -574 -209 -745 -452 -62 -88 -94 -148 -130
-248 -15 -41 -35 -79 -43 -84 -14 -9 -63 -3 -240 31 -26 5 -28 3 -25 -24 3
-26 6 -28 66 -35 34 -5 90 -11 125 -16 l62 -7 -3 -40 c-2 -22 -4 -41 -5 -42
-2 -1 -38 -5 -82 -8 -131 -10 -145 -13 -145 -36 0 -19 4 -20 63 -15 34 3 82 7
107 8 l45 3 3 -39 c2 -21 -1 -43 -7 -49 -5 -5 -50 -27 -98 -47 -69 -28 -89
-41 -91 -58 -5 -31 15 -28 109 13 44 19 81 35 83 35 2 0 9 -37 16 -82 13 -97
60 -244 97 -308 36 -62 115 -143 181 -186 69 -46 198 -100 271 -114 183 -34
546 -31 759 6 106 18 271 64 375 104 147 56 314 195 371 308 55 108 71 186 71
344 0 82 2 148 5 148 3 0 47 -10 98 -21 66 -16 96 -19 104 -11 24 24 -2 40
-94 57 -51 9 -100 21 -109 26 -22 11 -45 67 -32 80 5 5 55 15 111 22 56 8 105
16 108 20 4 3 4 14 0 23 -5 12 -14 15 -35 11 -16 -4 -69 -9 -119 -13 l-89 -7
-12 34 c-15 44 -9 49 127 94 89 29 112 40 112 55 0 10 -4 22 -10 25 -5 3 -69
-15 -142 -40 -73 -25 -134 -42 -135 -38 -2 5 -24 44 -49 86 -102 175 -330 365
-513 429 -153 53 -349 75 -516 58z"/>
</g>
</svg>
